<?xml version="1.0" encoding="UTF-8"?>
<svg id="Calque_2" data-name="Calque 2" xmlns="http://www.w3.org/2000/svg" viewBox="0 0 899.42 470.66">
  <defs>
    <style>
      .cls-1 {
        fill: #fa805a;
      }

      .cls-1, .cls-2, .cls-3, .cls-4, .cls-5 {
        fill-rule: evenodd;
      }

      .cls-2 {
        fill: #fb805a;
      }

      .cls-3 {
        fill: #164ba6;
      }

      .cls-4 {
        fill: #fa805b;
      }

      .cls-5 {
        fill: #fb815b;
      }
    </style>
  </defs>
  <g id="Calque_1-2" data-name="Calque 1">
    <g>
      <path class="cls-3" d="M750.45,135.96c-17.61.6-35.93-1.5-58.71,14.89-27.51,19.8-29.58-7.71-25.75-15.5,12.94-26.26,65.21-27.22,52.78-32.66-16.44-7.19-217.41-118.97-487.59-53.28C86.76,84.53,65.26,123.41,57.65,111.78c-2.33-3.56,14.02-13.81,15.47-14.72,305.98-191.73,611.98-45.01,654.12-17.35,18.45,12.11,1.02-8.02-4.9-38.28-6.81-34.82,17.79-21.64,19.96-16.52,39.32,92.55,50.01,87.07,51.77,95.59,5.14,24.94-35.76,16.07-43.61,15.45h0Z"/>
      <path class="cls-1" d="M764.28,439.79c-5.62,7.35-15.41,23.98-24.2,23.95-64.16-.18-71.89,1.12-67.63-4.21,5.22-6.54,5.69-5.94,66.37-80.84,12.99-16.03,3.15-17.59-9.24-33.81q-42.36-55.47-46.34-60.01c-3.57-4.02,6.38-3.93,7.02-3.93,52.94.47,60.61-4.94,71.96,10.36,19.37,26.12,21.48,34.92,28.71,25.21,26.22-35.23,27.06-35.61,32.24-35.62,63.68-.2,69.09-.81,66.02,3.49-5.09,7.12-65.31,81.52-63.19,85.03,4.46,7.37,73.93,89.84,73.42,91.73-1.77,6.57-64.48,2.84-70.08,2.51-8.67-.52-40.12-53.84-44.96-49.37-.92.85-16.72,21.6-20.09,25.5h0Z"/>
      <path class="cls-5" d="M477.5,442.38c-.19-22.61-2.36-275.31.65-282.57,1.08-2.61,61.96-5.87,62.04,2.31.24,23.74,2.13,214.51-.15,296.8-.18,6.33-11.04,4.74-51.21,4.85-14.88.04-11.23-6.28-11.32-21.39h0Z"/>
      <path class="cls-2" d="M205.56,229.13c-50.37-64.99-105.68-59.85-200.6-58.93-6,.06-4.87,3.73-4.88,118.52,0,171.18-.88,174.73,4.83,174.91,84.74,2.7,112.84-3.23,122.43-5.26h0c122.64-39.13,124.82-169.1,78.22-229.24ZM69.11,403.33c-3.36-1.43-3.51-171.85.05-173.14,2.17-.78,25.12-.71,35.28,3.12,29.75,11.22,36.83,25.41,46.01,38.72h0c44.55,99.49-54.72,142.63-81.34,131.29Z"/>
      <path class="cls-4" d="M645.98,427.85c0,14.21,2.77,35.89-5.53,35.92-54.8.18-56.62-.42-57.03-4.6-.71-7.42.37-67.11-.22-162.12-.07-11.18-3.58-16.07,7.39-16.1,46.93-.13,55.4-1.86,55.42,5.7,0,47.07-.02,94.14-.02,141.2h0Z"/>
      <path class="cls-4" d="M632.06,238.8c-53.56,24.28-78.21-63.23-18.67-70.88,25.47-3.27,65.49,40,18.67,70.88Z"/>
      <path class="cls-4" d="M277.6,305.88c-87.96,89.56,47.27,227.38,154.04,133.17h0c1.01-1.17,11.45-13.27,11.75-15.31.71-4.77-41.36-26.29-45.65-22.54-42.82,37.52-77.83,11.61-81.89-14.87-1.49-9.75,6.11-3.41,123.14-5.14,6.59-.1,9.06,1.37,9.39-5.3,5.04-101.16-113.03-128.82-170.79-70.02ZM385.26,345c-.54,1.04-.89,1.02-58.43,1.26h0c-9.8-1.97-10.64-4.85-5.74-13.65,19.12-34.35,73.26-5.12,64.17,12.39Z"/>
    </g>
  </g>
</svg>