<?xml version="1.0" encoding="UTF-8" standalone="no"?><!DOCTYPE svg PUBLIC "-//W3C//DTD SVG 1.1//EN" "http://www.w3.org/Graphics/SVG/1.1/DTD/svg11.dtd"><svg width="100%" height="100%" viewBox="0 0 2167 2167" version="1.1" xmlns="http://www.w3.org/2000/svg" xmlns:xlink="http://www.w3.org/1999/xlink" xml:space="preserve" xmlns:serif="http://www.serif.com/" style="fill-rule:evenodd;clip-rule:evenodd;stroke-linejoin:round;stroke-miterlimit:2;"><g id="Background"><path d="M2166.663,164.583l0,2002.079c-17.047,6.279 -17.721,-0 -227.079,-0l-1939.583,0c-7.45,-10.888 0,-26.386 0,-39.579l0,-2127.083c12.517,-8.564 14.281,0 189.583,0l1977.079,0c7.434,10.867 0,12.398 0,164.583Z" style="fill:#fff;"/><path d="M455.947,1442.484c-19.245,4.067 -75.614,15.98 -245.649,10.557c-11.453,-0.365 -9.699,-7.49 -9.693,-350.953c0.004,-230.316 -2.251,-237.685 9.785,-237.802c190.453,-1.844 301.435,-12.176 402.498,118.234c93.506,120.659 89.137,381.445 -156.942,459.964Z" style="fill:#fb805a;"/><path d="M1066.521,1403.72c-214.218,189.034 -485.571,-87.506 -309.073,-267.205c115.876,-117.978 352.786,-62.49 342.677,140.495c-0.666,13.375 -5.618,10.435 -18.847,10.63c-234.819,3.475 -250.075,-9.237 -247.079,10.319c8.138,53.118 78.379,105.105 164.302,29.83c8.604,-7.538 93.024,35.647 91.602,45.221c-0.606,4.079 -21.558,28.364 -23.581,30.71Z" style="fill:#fa805b;"/><path d="M1706.213,795.589c-35.327,1.196 -72.094,-3.009 -117.798,29.878c-55.207,39.726 -59.36,-15.48 -51.663,-31.105c25.956,-52.694 130.851,-54.613 105.901,-65.526c-32.98,-14.425 -436.222,-238.709 -978.331,-106.909c-289.792,70.456 -332.93,148.466 -348.213,125.136c-4.682,-7.148 28.132,-27.71 31.036,-29.53c613.947,-384.709 1227.93,-90.305 1312.47,-34.804c37.019,24.303 2.042,-16.091 -9.826,-76.806c-13.657,-69.868 35.686,-43.428 40.058,-33.138c78.894,185.693 100.349,174.713 103.872,191.804c10.319,50.049 -71.761,32.248 -87.508,31.001Z" style="fill:#164ba6;"/><path d="M1733.947,1405.209c-11.285,14.747 -30.916,48.108 -48.556,48.059c-128.726,-0.36 -144.237,2.254 -135.704,-8.444c10.469,-13.126 11.408,-11.918 133.177,-162.201c26.065,-32.168 6.325,-35.3 -18.53,-67.847c-85,-111.305 -84.902,-111.304 -92.984,-120.403c-7.165,-8.066 12.799,-7.887 14.09,-7.876c106.22,0.953 121.617,-9.92 144.389,20.779c38.875,52.407 43.109,70.066 57.608,50.588c52.615,-70.683 54.305,-71.446 64.687,-71.479c127.771,-0.402 138.635,-1.621 132.461,7.01c-10.218,14.285 -131.049,163.574 -126.796,170.611c8.943,14.797 148.335,180.261 147.309,184.062c-3.56,13.189 -129.387,5.698 -140.624,5.029c-17.405,-1.036 -80.507,-108.037 -90.213,-99.053c-1.837,1.7 -33.556,43.332 -40.314,51.165Z" style="fill:#fa805a;"/><path d="M1158.525,1410.399c-0.389,-45.357 -4.735,-552.396 1.297,-566.98c2.163,-5.229 124.312,-11.787 124.476,4.632c0.474,47.64 4.283,430.402 -0.309,595.53c-0.353,12.698 -22.144,9.503 -102.758,9.733c-29.864,0.085 -22.526,-12.603 -22.706,-42.915Z" style="fill:#fb815b;"/><path d="M502.321,1068.618c89.397,199.616 -109.799,286.174 -163.207,263.437c-6.746,-2.872 -7.039,-344.819 0.097,-347.394c4.348,-1.569 50.398,-1.432 70.793,6.262c59.687,22.517 73.899,50.986 92.318,77.694Z" style="fill:#f7f6f5;"/><path d="M1496.58,1381.25c0.01,28.505 5.566,72.012 -11.1,72.066c-109.946,0.356 -113.617,-0.836 -114.426,-9.235c-1.434,-14.894 0.747,-134.655 -0.441,-325.284c-0.14,-22.432 -7.18,-32.252 14.818,-32.311c94.173,-0.254 111.154,-3.723 111.199,11.441c-0.017,94.441 -0.033,188.882 -0.05,283.324Z" style="fill:#fa805b;"/><path d="M1468.665,1001.923c-107.476,48.719 -156.93,-126.861 -37.47,-142.216c51.103,-6.568 131.4,80.254 37.47,142.216Z" style="fill:#fa805b;"/><path d="M856.207,1217.558c-19.662,-3.961 -21.346,-9.73 -11.513,-27.395c38.367,-68.928 146.992,-10.275 128.754,24.86c-1.079,2.079 -1.784,2.04 -117.241,2.535Z" style="fill:#f7f4f2;"/></g></svg>